<svg width="475" height="569" viewBox="0 0 475 569" fill="none" xmlns="http://www.w3.org/2000/svg">
<path d="M0 158.632C0 136.141 12.5785 115.539 32.5845 105.262L210.084 14.0829C227.293 5.24334 247.707 5.24333 264.915 14.0829L442.415 105.262C462.421 115.539 475 136.141 475 158.632V284.5V410.368C475 432.859 462.421 453.461 442.415 463.738L264.915 554.917C247.707 563.757 227.293 563.757 210.084 554.917L32.5845 463.738C12.5785 453.461 0 432.859 0 410.368V158.632Z" fill="#FD6E6E"/>
<path d="M99 375.779V195.797H160.4V230.012H162.275C166.025 218.763 172.43 209.858 181.492 203.296C190.553 196.734 201.334 193.453 213.832 193.453C226.487 193.453 237.385 196.812 246.525 203.53C255.664 210.17 261.172 218.998 263.046 230.012H264.921C267.968 218.998 274.451 210.17 284.372 203.53C294.293 196.812 305.933 193.453 319.291 193.453C336.555 193.453 350.538 199 361.24 210.092C372.02 221.185 377.41 235.949 377.41 254.385V375.779H312.729V270.789C312.729 262.9 310.737 256.728 306.753 252.276C302.769 247.745 297.418 245.479 290.7 245.479C284.06 245.479 278.787 247.745 274.881 252.276C271.053 256.728 269.139 262.9 269.139 270.789V375.779H207.271V270.789C207.271 262.9 205.279 256.728 201.295 252.276C197.311 247.745 191.96 245.479 185.242 245.479C180.789 245.479 176.961 246.495 173.758 248.526C170.555 250.557 168.056 253.486 166.259 257.314C164.54 261.064 163.681 265.555 163.681 270.789V375.779H99Z" fill="white"/>
</svg>
